# xmcd CD database file
#
# Track frame offsets:
#	150
#	27005
#	55245
#	85562
#	115650
#	145705
#	169692
#	185940
#	217772
#	244994
#	276807
#	302222
#
# Disc length: 4281 seconds
#
# Revision: 4
# Processed by: cddbd v1.5.2PL0 Copyright (c) Steve Scherf et al.
# Submitted via: CDex 1.51
#
DISCID=9f10b70c
DTITLE=Lacrimosa - Singles Collection
DYEAR=2005
DGENRE=Gothic
TTITLE0=Alles Luge
TTITLE1=Alles Luge (Sanguis Mix)
TTITLE2=Diener Eines Geistes (Virus Mix)
TTITLE3=Ruin
TTITLE4=Schakal (Edit Version)
TTITLE5=Schakal (Piano Version)
TTITLE6=Vermachtnis Der Sonne (Akustik Version)
TTITLE7=Seele In Not (Metus Mix)
TTITLE8=Stolzes Herz (Edit Version)
TTITLE9=Ich Bin Der Brennende Komet
TTITLE10=Mutatio Spiritus
TTITLE11=Stolzes Herz (Piano Version)
EXTD=Singles Colletion CD1 YEAR: 2005
EXTT0=
EXTT1=
EXTT2=
EXTT3=
EXTT4=
EXTT5=
EXTT6=
EXTT7=
EXTT8=
EXTT9=
EXTT10=
EXTT11=
PLAYORDER=
